<?xml version="1.0" encoding="UTF-8" standalone="no"?>
<!DOCTYPE svg PUBLIC "-//W3C//DTD SVG 1.1//EN" "http://www.w3.org/Graphics/SVG/1.1/DTD/svg11.dtd">
<svg width="100%" height="100%" viewBox="0 0 800 800" version="1.1" xmlns="http://www.w3.org/2000/svg" xmlns:xlink="http://www.w3.org/1999/xlink" xml:space="preserve" xmlns:serif="http://www.serif.com/" style="fill-rule:evenodd;clip-rule:evenodd;stroke-linejoin:round;stroke-miterlimit:2;">
    <path d="M725,100L450,100L432.5,107.5L400,139.5L367.5,107.5L350,100L75,100L50,125L50,625L75,650L339.5,650L382.5,692.5L417.5,692.5L460.5,650L725,650L750,625L750,125L725,100ZM375,616L366,607.5L350,600L100,600L100,150L339.5,150L376.5,187L375,616ZM700,600L450,600L432.5,607.5L425.5,614L425.5,185L460.5,150L700,150L700,600ZM300,250L150,250L150,300L300,300L300,250ZM300,450L150,450L150,500L300,500L300,450ZM150,350L300,350L300,400L150,400L150,350ZM650,250L500,250L500,300L650,300L650,250ZM500,350L650,350L650,400L500,400L500,350ZM500,450L650,450L650,500L500,500L500,450Z" style="fill:white;"/>
</svg>
