<svg id="Layer_1" enable-background="new 0 0 512 512" viewBox="0 0 512 512" xmlns="http://www.w3.org/2000/svg"><g id="Layer_2_1_"><g id="Layer_1-2"><g id="_43"><path d="m434 31.5h-356c-25.7 0-46.5 20.8-46.5 46.5v356c0 25.7 20.8 46.5 46.5 46.5h356c25.7 0 46.5-20.8 46.5-46.5v-356c0-25.7-20.8-46.5-46.5-46.5zm33.8 401.8c0 19.1-15.4 34.5-34.5 34.5h-354.6c-19.1 0-34.5-15.4-34.5-34.5v-354.6c0-19 15.4-34.5 34.5-34.5h354.6c19.1 0 34.5 15.4 34.5 34.5z"/><path d="m199.9 183.4c0-6.4 4.2-10.6 10.6-10.6h33.2c38.8 0 68.6 18.4 68.6 82.2 0 64.4-30.3 84.3-68.6 84.3h-33.3c-6.4 0-10.6-4.2-10.6-10.6v-145.3zm37.6 130h4.4c26 0 32-6.6 32-57 0-50.6-5.9-58.4-31.8-58.4h-4.6z"/></g></g></g></svg>