<?xml version="1.0" encoding="UTF-8" standalone="no"?>
<!DOCTYPE svg PUBLIC "-//W3C//DTD SVG 1.1//EN" "http://www.w3.org/Graphics/SVG/1.1/DTD/svg11.dtd">
<svg width="100%" height="100%" viewBox="0 0 800 800" version="1.1" xmlns="http://www.w3.org/2000/svg" xmlns:xlink="http://www.w3.org/1999/xlink" xml:space="preserve" xmlns:serif="http://www.serif.com/" style="fill-rule:evenodd;clip-rule:evenodd;stroke-linejoin:round;stroke-miterlimit:2;">
    <path d="M733.333,400C733.333,584.093 584.093,733.333 400,733.333C215.905,733.333 66.667,584.093 66.667,400C66.667,215.905 215.905,66.667 400,66.667C584.093,66.667 733.333,215.905 733.333,400ZM358.247,199.788C358.363,213.595 347.263,224.882 333.46,224.999C304.929,225.241 285.004,226.183 270.012,229.12C255.719,231.92 247.808,236.189 241.999,241.999C236.189,247.808 231.92,255.719 229.12,270.012C226.183,285.004 225.241,304.929 224.999,333.46C224.882,347.263 213.595,358.363 199.788,358.247C185.981,358.13 174.884,346.84 175.001,333.034C175.241,304.678 176.119,280.481 180.052,260.401C184.122,239.623 191.772,221.514 206.643,206.643C221.514,191.772 239.623,184.122 260.401,180.052C280.481,176.119 304.678,175.241 333.034,175.001C346.84,174.884 358.13,185.981 358.247,199.788ZM441.673,199.788C441.79,185.981 453.077,174.884 466.883,175.001C495.24,175.241 519.437,176.119 539.517,180.052C560.297,184.122 578.403,191.772 593.277,206.643C608.147,221.514 615.797,239.623 619.867,260.401C623.8,280.481 624.677,304.678 624.917,333.034C625.033,346.84 613.937,358.13 600.13,358.247C586.323,358.363 575.037,347.263 574.92,333.46C574.677,304.929 573.737,285.004 570.8,270.012C568,255.719 563.73,247.808 557.92,241.999C552.11,236.189 544.2,231.92 529.907,229.12C514.917,226.183 494.99,225.241 466.46,224.999C452.653,224.882 441.557,213.595 441.673,199.788ZM224.999,466.477C224.882,452.67 213.595,441.573 199.788,441.69C185.981,441.807 174.884,453.093 175.001,466.9C175.241,495.257 176.119,519.453 180.052,539.533C184.122,560.313 191.772,578.42 206.643,593.293C221.514,608.163 239.623,615.813 260.401,619.883C280.481,623.817 304.678,624.693 333.034,624.933C346.84,625.05 358.13,613.953 358.247,600.147C358.363,586.34 347.263,575.053 333.46,574.937C304.929,574.693 285.004,573.75 270.012,570.817C255.719,568.017 247.808,563.747 241.999,557.937C236.189,552.127 231.92,544.217 229.12,529.923C226.183,514.93 225.241,495.007 224.999,466.477ZM600.13,441.69C613.937,441.807 625.033,453.093 624.917,466.9C624.677,495.257 623.8,519.453 619.867,539.533C615.797,560.313 608.147,578.42 593.277,593.293C578.403,608.163 560.297,615.813 539.517,619.883C519.437,623.817 495.24,624.693 466.883,624.933C453.077,625.05 441.79,613.953 441.673,600.147C441.557,586.34 452.653,575.053 466.46,574.937C494.99,574.693 514.917,573.75 529.907,570.817C544.2,568.017 552.11,563.747 557.92,557.937C563.73,552.127 568,544.217 570.8,529.923C573.737,514.93 574.677,495.007 574.92,466.477C575.037,452.67 586.323,441.573 600.13,441.69Z" style="fill:white;"/>
</svg>
