<svg id="Layer_1" enable-background="new 0 0 512 512" viewBox="0 0 512 512" xmlns="http://www.w3.org/2000/svg"><g id="Layer_2_1_"><g id="Layer_1-2"><g id="_88"><path d="m443.6 81.3h-375.2c-37.8 0-68.4 30.6-68.4 68.3v212.7c0 37.7 30.6 68.3 68.4 68.4h375.2c37.7 0 68.3-30.6 68.4-68.4v-212.7c0-37.7-30.6-68.3-68.4-68.3zm55.7 76.8v204.2c0 30.7-24.9 55.7-55.6 55.7h-375.3c-30.7 0-55.7-24.9-55.7-55.7v-212.7c0-30.7 24.9-55.7 55.7-55.7h375.2c30.7 0 55.7 24.9 55.7 55.7z"/><path d="m283 275.9c4.8 3.7 5.8 5.3 5.8 10v14.3c-.1 3.3-2.7 6-6 6.2-2.1.1-4.1-.6-5.8-1.8l-46.8-34.2c-4.8-3.5-7-4.8-7-12.7v-3.3c0-7.8 2.2-9.2 7-12.7l46.8-34.2c1.5-1.2 3.4-1.9 5.3-1.8 3 0 6.5 2 6.5 6.2v14.3c0 4.7-1 6.3-5.8 10l-26.3 19.8z"/></g></g></g></svg>