<?xml version="1.0" encoding="UTF-8" standalone="no"?>
<!DOCTYPE svg PUBLIC "-//W3C//DTD SVG 1.1//EN" "http://www.w3.org/Graphics/SVG/1.1/DTD/svg11.dtd">
<svg width="100%" height="100%" viewBox="0 0 800 800" version="1.1" xmlns="http://www.w3.org/2000/svg" xmlns:xlink="http://www.w3.org/1999/xlink" xml:space="preserve" xmlns:serif="http://www.serif.com/" style="fill-rule:evenodd;clip-rule:evenodd;stroke-linejoin:round;stroke-miterlimit:2;">
    <path d="M75,250L214.5,250L407.5,58.5L450,76L450,726L407.5,742.5L214.5,550L75,550L50,525L50,275L75,250ZM242.5,508.5L400,665.5L400,136.5L242.5,292.5L225,300L100,300L100,500L225,500L242.5,508.5ZM711.55,303.1L746.9,338.45L660.35,425L746.9,511.6L711.55,546.95L625,460.35L538.4,546.95L503.05,511.6L589.65,425L503,338.5L538.35,303.15L625,389.65L711.55,303.1Z" style="fill:white;"/>
</svg>
