<svg xmlns="http://www.w3.org/2000/svg" version="1.1" xmlns:xlink="http://www.w3.org/1999/xlink" width="512" height="512" x="0" y="0" viewBox="0 0 24 24" style="enable-background:new 0 0 512 512" xml:space="preserve" class=""><g><path d="M8.613 4.081A.884.884 0 0 1 9 4h6c.551 0 1 .448 1 1v7a1 1 0 1 0 2 0V5c0-1.654-1.346-3-3-3H9c-.447 0-.869.094-1.253.278a1 1 0 0 0 .866 1.803zM21.707 20.293l-18-18a.999.999 0 1 0-1.414 1.414L6 7.414V19c0 1.654 1.346 3 3 3h6a2.994 2.994 0 0 0 2.962-2.624l2.331 2.331a.997.997 0 0 0 1.414 0 .999.999 0 0 0 0-1.414zM16 19c0 .552-.449 1-1 1H9c-.551 0-1-.448-1-1V9.414l8 8z" fill="#ffffff" opacity="1" data-original="#000000" class=""></path><circle cx="12" cy="18" r="1" fill="#ffffff" opacity="1" data-original="#000000" class=""></circle></g></svg>