<?xml version="1.0" encoding="UTF-8" standalone="no"?>
<!DOCTYPE svg PUBLIC "-//W3C//DTD SVG 1.1//EN" "http://www.w3.org/Graphics/SVG/1.1/DTD/svg11.dtd">
<svg width="100%" height="100%" viewBox="0 0 800 800" version="1.1" xmlns="http://www.w3.org/2000/svg" xmlns:xlink="http://www.w3.org/1999/xlink" xml:space="preserve" xmlns:serif="http://www.serif.com/" style="fill-rule:evenodd;clip-rule:evenodd;stroke-linejoin:round;stroke-miterlimit:2;">
    <path d="M400,733.333C584.093,733.333 733.333,584.093 733.333,400C733.333,215.905 584.093,66.667 400,66.667C215.905,66.667 66.667,215.905 66.667,400C66.667,584.093 215.905,733.333 400,733.333ZM269.204,287.244C266.667,293.37 266.667,301.135 266.667,316.667L266.667,483.333C266.667,498.863 266.667,506.63 269.204,512.757C272.587,520.923 279.076,527.413 287.244,530.797C293.37,533.333 301.135,533.333 316.667,533.333C332.198,533.333 339.963,533.333 346.09,530.797C354.257,527.413 360.747,520.923 364.13,512.757C366.667,506.63 366.667,498.863 366.667,483.333L366.667,316.667C366.667,301.135 366.667,293.37 364.13,287.244C360.747,279.076 354.257,272.587 346.09,269.204C339.963,266.667 332.198,266.667 316.667,266.667C301.135,266.667 293.37,266.667 287.244,269.204C279.076,272.587 272.587,279.076 269.204,287.244ZM435.87,287.244C433.333,293.37 433.333,301.135 433.333,316.667L433.333,483.333C433.333,498.863 433.333,506.63 435.87,512.757C439.253,520.923 445.743,527.413 453.91,530.797C460.037,533.333 467.803,533.333 483.333,533.333C498.863,533.333 506.63,533.333 512.757,530.797C520.923,527.413 527.413,520.923 530.797,512.757C533.333,506.63 533.333,498.863 533.333,483.333L533.333,316.667C533.333,301.135 533.333,293.37 530.797,287.244C527.413,279.076 520.923,272.587 512.757,269.204C506.63,266.667 498.863,266.667 483.333,266.667C467.803,266.667 460.037,266.667 453.91,269.204C445.743,272.587 439.253,279.076 435.87,287.244Z" style="fill:white;"/>
</svg>
