<svg id="Layer_1" enable-background="new 0 0 512 512" viewBox="0 0 512 512" xmlns="http://www.w3.org/2000/svg"><g id="Layer_2_1_"><g id="Layer_1-2"><g id="_101"><path d="m443.6 81.3h-375.2c-37.8 0-68.4 30.6-68.4 68.3v212.7c0 37.7 30.6 68.3 68.4 68.4h375.2c37.7 0 68.3-30.6 68.4-68.4v-212.7c0-37.7-30.6-68.3-68.4-68.3zm55.7 76.8v204.2c0 30.7-24.9 55.7-55.6 55.7h-375.3c-30.7 0-55.7-24.9-55.7-55.7v-212.7c0-30.7 24.9-55.7 55.7-55.7h375.2c30.7 0 55.7 24.9 55.7 55.7z"/><path d="m151.2 258h5.4c1.9-.2 3.7 1.3 3.8 3.2v.4c.3 3.5 1 7.4 5.7 7.4 3.6 0 5-2.1 5-4.9 0-5.9-6.3-9-11.9-13.1-6.9-5.1-11-10.5-11-17.5 0-8.6 6.3-15.1 17.6-15.1 12.9 0 17.1 8.4 17.1 14.5 0 2-.7 3.8-3.2 3.8h-5.1c-2.1 0-4-1.2-4.1-3.1-.1-3-1.2-5.5-4.5-5.5-2.7 0-4.4 1.7-4.4 4.1 0 5.2 7.4 8.7 14.2 14.4 4.8 4.1 8.3 8.4 8.3 16 0 10.6-6.9 16.2-18 16.2-15.5 0-18.5-10.5-18.5-16.6 0-3.1.9-4.2 3.6-4.2z"/><path d="m216.2 278.3c-3.8.1-7.4-1.2-10.2-3.7v15.3c.1 1.9-1.4 3.6-3.3 3.7-.1 0-.3 0-.4 0h-5.9c-1.9.1-3.6-1.3-3.7-3.3 0-.1 0-.3 0-.4v-50.9c-.1-1.9 1.4-3.6 3.3-3.7h.4 5.6c1.9-.1 3.6 1.4 3.7 3.3v.1c2-2.4 5.9-4 10.6-4 8.7 0 15.9 7.2 15.9 21.8-.2 14.7-7.2 21.8-16 21.8zm-4.5-34c-4.9 0-6.3 6.1-6.3 12.2 0 7.5 1.7 12.2 6.3 12.2 5.6 0 6.8-4.8 6.8-12.2 0-6-1-12.1-6.8-12.2z"/><path d="m251.2 246.8c-.2.7-.7 1.6-3.2 1.6h-4.4c-2.8 0-3.9-.8-3.9-3.1 0-3.6 4.3-11 17.4-11 15.1 0 18.1 8 18.1 19.8v20c.1 1.9-1.4 3.6-3.3 3.7-.1 0-.3 0-.4 0h-5.9c-2.2 0-3.3-1.4-3.3-3.7v-.7c-2.6 3.3-6.6 5.2-10.8 5-8.1 0-13.6-5.9-13.6-13.4 0-9 7.8-13.8 17.2-13.8 2.4 0 4.7.3 7 1v-2c0-3.7-2-6-5.5-6-2.7-.1-4.7.7-5.4 2.6zm4.2 21.8c3.9 0 6.7-4.2 6.8-7.3-.5-.4-2.2-1.3-5.9-1.3-2.5 0-6 1-6 4.4 0 2.7 2.3 4.2 5.1 4.2z"/><path d="m316.5 262.8c2.6 0 3.4.7 3.4 3.9 0 5.7-5 12.2-17 12.2-13.4 0-19.9-7.7-19.9-22.3s6.4-22.3 19.9-22.3c12.9 0 16.8 7.9 16.8 12.4 0 2.4-1.3 3-3.1 3h-5.3c-1.4.1-2.7-.8-3.1-2.2-.7-2.3-2.8-3.4-5.3-3.4-5.4 0-6.5 5.3-6.5 12.9 0 8.1 1.3 12.2 6.6 12.2 3.7 0 5.1-2 5.5-3.9.1-1.4 1.3-2.5 2.7-2.4z"/><path d="m360.9 262.8c2.1 0 2.8 1 2.8 2.7 0 5.8-3.9 13.4-17.3 13.4-13.6 0-19.9-8.8-19.9-22.9 0-14.6 7.6-21.7 19.9-21.7 12.8 0 18 7.6 18 17.2 0 5.2-1.8 7-7.1 7h-17.5c0 8.2 1.6 10.7 6.8 10.7 3 0 5.1-.8 6-3.8.5-1.9 1.5-2.5 3.9-2.5zm-21-13h12.9c0-2.6-1.3-6.1-6.3-6.1-4.7 0-6.5 3.3-6.6 6.1z"/></g></g></g></svg>