<?xml version="1.0" encoding="UTF-8" standalone="no"?>
<!DOCTYPE svg PUBLIC "-//W3C//DTD SVG 1.1//EN" "http://www.w3.org/Graphics/SVG/1.1/DTD/svg11.dtd">
<svg width="100%" height="100%" viewBox="0 0 800 800" version="1.1" xmlns="http://www.w3.org/2000/svg" xmlns:xlink="http://www.w3.org/1999/xlink" xml:space="preserve" xmlns:serif="http://www.serif.com/" style="fill-rule:evenodd;clip-rule:evenodd;stroke-linejoin:round;stroke-miterlimit:2;">
    <path d="M400,733.333C584.093,733.333 733.333,584.093 733.333,400C733.333,215.905 584.093,66.667 400,66.667C215.905,66.667 66.667,215.905 66.667,400C66.667,584.093 215.905,733.333 400,733.333ZM531.153,186.386C540.567,190.221 546.723,199.374 546.723,209.539L546.723,300.022C546.723,313.83 535.53,325.022 521.723,325.022L433.333,325.022C423.277,325.022 414.197,318.995 410.293,309.725C406.39,300.455 408.423,289.748 415.45,282.553L440.833,256.568C392.65,241.714 338.223,253.768 300.032,292.865C244.434,349.783 244.434,442.3 300.032,499.217C355.31,555.807 444.69,555.807 499.967,499.217C522.563,476.087 536.017,447.04 540.23,416.817C542.17,402.883 553.24,391.163 567.307,391.163C580.82,391.163 592.03,401.983 590.723,415.433C586.523,458.687 568.237,500.883 535.733,534.157C460.84,610.827 339.16,610.827 264.265,534.157C189.689,457.813 189.689,334.27 264.265,257.927C322.184,198.635 408.133,185.155 478.823,217.679L503.84,192.069C510.943,184.798 521.74,182.551 531.153,186.386Z" style="fill:white;"/>
</svg>
