<?xml version="1.0" encoding="UTF-8" standalone="no"?>
<!DOCTYPE svg PUBLIC "-//W3C//DTD SVG 1.1//EN" "http://www.w3.org/Graphics/SVG/1.1/DTD/svg11.dtd">
<svg width="100%" height="100%" viewBox="0 0 489 489" version="1.1" xmlns="http://www.w3.org/2000/svg" xmlns:xlink="http://www.w3.org/1999/xlink" xml:space="preserve" xmlns:serif="http://www.serif.com/" style="fill-rule:evenodd;clip-rule:evenodd;stroke-linejoin:round;stroke-miterlimit:2;">
    <g>
        <path d="M443.762,251.057L282.306,251.057L282.306,285.682L443.898,285.754L443.819,454.068L443.762,454.068L282.298,454.004C282.292,466.673 278.612,478.397 272.631,488.63L443.762,488.63C462.9,488.63 478.461,473.069 478.461,453.933L478.461,285.754C478.461,266.634 462.9,251.057 443.762,251.057Z" style="fill:white;fill-rule:nonzero;"/>
        <path d="M213.053,100.678L44.867,100.678C25.739,100.678 10.17,116.247 10.17,135.375L10.17,453.933C10.17,473.069 25.739,488.63 44.867,488.63L213.053,488.63C232.175,488.63 247.744,473.069 247.744,453.933L247.744,135.375C247.744,116.247 232.175,100.678 213.053,100.678ZM44.867,135.232L213.181,135.375L213.109,419.347L44.748,419.347L44.867,135.232ZM110.633,453.017C110.633,442.904 118.835,434.701 128.941,434.701C139.087,434.701 147.29,442.903 147.29,453.017C147.29,463.139 139.088,471.358 128.941,471.358C118.835,471.357 110.633,463.139 110.633,453.017Z" style="fill:white;fill-rule:nonzero;"/>
        <path d="M361.752,128.511L338.698,128.511C337.025,128.511 335.527,129.514 334.883,131.069C334.254,132.597 334.604,134.381 335.782,135.552L376.23,176.007C377.846,177.609 380.451,177.609 382.067,176.007L422.515,135.552C423.686,134.381 424.045,132.597 423.415,131.069C422.777,129.514 421.272,128.511 419.6,128.511L396.307,128.511C395.001,57.443 336.873,0 265.503,0C255.962,0 248.23,7.732 248.23,17.273C248.23,26.823 255.962,34.563 265.503,34.563C317.825,34.563 360.454,76.492 361.752,128.511Z" style="fill:white;fill-rule:nonzero;"/>
    </g>
</svg>
