<?xml version="1.0" encoding="UTF-8" standalone="no"?>
<!DOCTYPE svg PUBLIC "-//W3C//DTD SVG 1.1//EN" "http://www.w3.org/Graphics/SVG/1.1/DTD/svg11.dtd">
<svg width="100%" height="100%" viewBox="0 0 800 800" version="1.1" xmlns="http://www.w3.org/2000/svg" xmlns:xlink="http://www.w3.org/1999/xlink" xml:space="preserve" xmlns:serif="http://www.serif.com/" style="fill-rule:evenodd;clip-rule:evenodd;stroke-linejoin:round;stroke-miterlimit:2;">
    <path d="M75,241.5L214.5,241.5L407.5,50L450,67.5L450,717.5L407.5,734L214.5,541.5L75,541.5L50,516.5L50,266.5L75,241.5ZM242.5,500L400,657L400,128L242.5,284L225,291.5L100,291.5L100,491.5L225,491.5L242.5,500ZM750,391.5C750.131,472.192 722.232,550.477 671.1,612.9L635.5,577.4C677.367,524.506 700.11,458.959 700,391.5C700,321.5 676,257.05 635.8,206L671.4,170.5C722.334,232.86 750.119,310.983 750,391.5ZM650,391.5C650.094,445.676 632.498,498.429 599.9,541.7L564.1,505.9C587.534,472.366 600.073,432.411 600,391.5C600.07,350.752 587.623,310.948 564.35,277.5L600.15,241.7C631.45,283.45 650,335.3 650,391.5ZM550,391.5C550,420.2 542,447 528,469.8L491.05,432.9C502.996,406.784 503.087,376.738 491.3,350.55L528.25,313.6C542.05,336.3 550,363 550,391.5Z" style="fill:white;"/>
</svg>
